<svg xmlns="http://www.w3.org/2000/svg" xmlns:xlink="http://www.w3.org/1999/xlink" width="500" zoomAndPan="magnify" viewBox="0 0 375 374.999991" height="500" preserveAspectRatio="xMidYMid meet" version="1.0"><defs><g/><clipPath id="689588df12"><path d="M 243 131 L 296.746094 131 L 296.746094 193 L 243 193 Z M 243 131 " clip-rule="nonzero"/></clipPath></defs><rect x="-37.5" width="450" fill="#ffffff" y="-37.499999" height="449.999989" fill-opacity="1"/><rect x="-37.5" width="450" fill="#ffffff" y="-37.499999" height="449.999989" fill-opacity="1"/><path fill="#211d1d" d="M 130.335938 185.722656 C 116.894531 177.9375 89.625 162.140625 89.429688 162.027344 C 101.140625 155.242188 128.414062 139.449219 130.335938 138.332031 C 134.199219 136.097656 130.710938 130.089844 126.839844 132.332031 C 113.398438 140.117188 99.957031 147.902344 86.515625 155.6875 C 84.59375 156.800781 82.671875 157.914062 80.75 159.027344 C 78.5 160.328125 78.5 163.726562 80.75 165.03125 C 94.191406 172.816406 124.917969 190.613281 126.839844 191.726562 C 130.707031 193.96875 134.203125 187.960938 130.335938 185.722656 " fill-opacity="1" fill-rule="nonzero"/><g clip-path="url(#689588df12)"><path fill="#211d1d" d="M 294.507812 159.027344 C 281.066406 151.242188 250.339844 133.445312 248.417969 132.332031 C 244.550781 130.089844 241.054688 136.09375 244.921875 138.332031 C 258.359375 146.117188 285.632812 161.914062 285.828125 162.027344 C 274.117188 168.8125 246.84375 184.609375 244.921875 185.722656 C 241.058594 187.960938 244.542969 193.96875 248.417969 191.726562 C 261.859375 183.941406 292.585938 166.144531 294.507812 165.03125 C 296.757812 163.726562 296.757812 160.328125 294.507812 159.027344 " fill-opacity="1" fill-rule="nonzero"/></g><path fill="#62b0c6" d="M 195.847656 153.351562 L 188.390625 153.351562 L 188.390625 145.863281 L 195.847656 145.863281 Z M 195.847656 162.371094 L 188.390625 162.371094 L 188.390625 154.882812 L 195.847656 154.882812 Z M 179.402344 162.371094 L 179.402344 154.882812 L 186.867188 154.882812 L 186.867188 162.371094 Z M 179.402344 145.863281 L 186.867188 145.863281 L 186.867188 153.351562 L 179.402344 153.351562 Z M 236.292969 154.769531 C 232.1875 151.445312 228.078125 148.125 223.96875 144.800781 L 223.96875 134.515625 C 223.96875 133.832031 223.449219 133.273438 222.800781 133.273438 L 217.214844 133.273438 C 216.5625 133.273438 216.039062 133.832031 216.039062 134.515625 L 216.039062 138.386719 C 212.582031 135.589844 209.121094 132.792969 205.652344 129.996094 C 200.132812 125.535156 194.605469 121.058594 189.074219 116.597656 C 188.652344 116.160156 188.140625 115.992188 187.628906 116.011719 C 187.117188 115.992188 186.605469 116.160156 186.183594 116.597656 C 175.964844 124.847656 165.75 133.101562 155.542969 141.367188 C 150.011719 145.828125 144.480469 150.292969 138.964844 154.769531 C 137.507812 155.933594 138.761719 158.273438 140.410156 158.273438 L 151.273438 158.273438 L 151.273438 190.164062 C 151.273438 191.285156 152.21875 192.21875 153.335938 192.21875 L 221.921875 192.21875 C 223.035156 192.21875 223.96875 191.285156 223.96875 190.164062 L 223.96875 158.273438 L 234.847656 158.273438 C 236.5 158.273438 237.75 155.933594 236.292969 154.769531 " fill-opacity="1" fill-rule="nonzero"/><g fill="#000000" fill-opacity="1"><g transform="translate(104.394523, 238.19102)"><g><path d="M 12.625 -21.734375 L 21.390625 0 L 16.0625 0 L 14.46875 -4.34375 L 6.1875 -4.34375 L 4.578125 0 L -0.734375 0 L 8.03125 -21.734375 Z M 12.78125 -8.6875 L 10.359375 -15.015625 L 10.296875 -15.015625 L 7.875 -8.6875 Z M 12.78125 -8.6875 "/></g></g></g><g fill="#62b0c6" fill-opacity="1"><g transform="translate(127.035146, 238.19102)"><g><path d="M 13.140625 -4.484375 C 13.898438 -4.484375 14.632812 -4.59375 15.34375 -4.8125 C 16.050781 -5.039062 16.570312 -5.265625 16.90625 -5.484375 L 17.40625 -5.828125 L 19.515625 -1.609375 C 19.453125 -1.554688 19.359375 -1.484375 19.234375 -1.390625 C 19.109375 -1.304688 18.820312 -1.144531 18.375 -0.90625 C 17.925781 -0.664062 17.445312 -0.457031 16.9375 -0.28125 C 16.425781 -0.113281 15.757812 0.0351562 14.9375 0.171875 C 14.113281 0.316406 13.257812 0.390625 12.375 0.390625 C 10.363281 0.390625 8.453125 -0.101562 6.640625 -1.09375 C 4.828125 -2.082031 3.367188 -3.445312 2.265625 -5.1875 C 1.160156 -6.925781 0.609375 -8.804688 0.609375 -10.828125 C 0.609375 -12.359375 0.929688 -13.820312 1.578125 -15.21875 C 2.234375 -16.625 3.097656 -17.828125 4.171875 -18.828125 C 5.253906 -19.835938 6.515625 -20.640625 7.953125 -21.234375 C 9.390625 -21.828125 10.863281 -22.125 12.375 -22.125 C 13.78125 -22.125 15.078125 -21.957031 16.265625 -21.625 C 17.453125 -21.289062 18.289062 -20.957031 18.78125 -20.625 L 19.515625 -20.125 L 17.40625 -15.90625 C 17.289062 -16.007812 17.109375 -16.132812 16.859375 -16.28125 C 16.609375 -16.4375 16.113281 -16.632812 15.375 -16.875 C 14.644531 -17.125 13.898438 -17.25 13.140625 -17.25 C 11.953125 -17.25 10.882812 -17.054688 9.9375 -16.671875 C 8.988281 -16.285156 8.234375 -15.773438 7.671875 -15.140625 C 7.117188 -14.515625 6.695312 -13.835938 6.40625 -13.109375 C 6.125 -12.378906 5.984375 -11.632812 5.984375 -10.875 C 5.984375 -9.226562 6.597656 -7.75 7.828125 -6.4375 C 9.066406 -5.132812 10.835938 -4.484375 13.140625 -4.484375 Z M 13.140625 -4.484375 "/></g></g></g><g fill="#62b0c6" fill-opacity="1"><g transform="translate(148.848554, 238.19102)"><g><path d="M 12.625 -21.734375 L 21.390625 0 L 16.0625 0 L 14.46875 -4.34375 L 6.1875 -4.34375 L 4.578125 0 L -0.734375 0 L 8.03125 -21.734375 Z M 12.78125 -8.6875 L 10.359375 -15.015625 L 10.296875 -15.015625 L 7.875 -8.6875 Z M 12.78125 -8.6875 "/></g></g></g><g fill="#62b0c6" fill-opacity="1"><g transform="translate(171.478611, 238.19102)"><g><path d="M 1.578125 -21.734375 L 8.328125 -21.734375 C 10.359375 -21.734375 11.976562 -21.296875 13.1875 -20.421875 C 14.40625 -19.554688 15.015625 -18.148438 15.015625 -16.203125 C 15.015625 -14.023438 14.109375 -12.46875 12.296875 -11.53125 C 15.390625 -10.988281 16.9375 -9.164062 16.9375 -6.0625 C 16.9375 -4.226562 16.300781 -2.757812 15.03125 -1.65625 C 13.769531 -0.550781 12.035156 0 9.828125 0 L 1.578125 0 Z M 6.53125 -13.21875 L 6.921875 -13.21875 C 8.035156 -13.21875 8.863281 -13.410156 9.40625 -13.796875 C 9.945312 -14.191406 10.21875 -14.828125 10.21875 -15.703125 C 10.21875 -17.171875 9.117188 -17.90625 6.921875 -17.90625 L 6.53125 -17.90625 Z M 6.53125 -3.8125 L 8.09375 -3.8125 C 10.507812 -3.8125 11.71875 -4.625 11.71875 -6.25 C 11.71875 -7.207031 11.414062 -7.894531 10.8125 -8.3125 C 10.207031 -8.738281 9.300781 -8.953125 8.09375 -8.953125 L 6.53125 -8.953125 Z M 6.53125 -3.8125 "/></g></g></g><g fill="#62b0c6" fill-opacity="1"><g transform="translate(191.000108, 238.19102)"><g><path d="M 1.578125 -21.734375 L 9.359375 -21.734375 C 11.441406 -21.734375 13.140625 -21.175781 14.453125 -20.0625 C 15.773438 -18.945312 16.4375 -17.351562 16.4375 -15.28125 C 16.4375 -13.675781 16.035156 -12.332031 15.234375 -11.25 C 14.441406 -10.175781 13.359375 -9.421875 11.984375 -8.984375 L 19.46875 0 L 13.171875 0 L 6.53125 -8.59375 L 6.53125 0 L 1.578125 0 Z M 6.53125 -12.09375 L 7.109375 -12.09375 C 7.566406 -12.09375 7.953125 -12.097656 8.265625 -12.109375 C 8.585938 -12.128906 8.945312 -12.191406 9.34375 -12.296875 C 9.75 -12.398438 10.078125 -12.550781 10.328125 -12.75 C 10.578125 -12.945312 10.785156 -13.226562 10.953125 -13.59375 C 11.128906 -13.957031 11.21875 -14.40625 11.21875 -14.9375 C 11.21875 -15.46875 11.128906 -15.914062 10.953125 -16.28125 C 10.785156 -16.644531 10.578125 -16.921875 10.328125 -17.109375 C 10.078125 -17.304688 9.75 -17.457031 9.34375 -17.5625 C 8.945312 -17.675781 8.585938 -17.738281 8.265625 -17.75 C 7.953125 -17.769531 7.566406 -17.78125 7.109375 -17.78125 L 6.53125 -17.78125 Z M 6.53125 -12.09375 "/></g></g></g><g fill="#62b0c6" fill-opacity="1"><g transform="translate(211.83879, 238.19102)"><g><path d="M 14.015625 -21.734375 L 14.015625 -17.390625 L 6.53125 -17.390625 L 6.53125 -13.0625 L 13.703125 -13.0625 L 13.703125 -8.71875 L 6.53125 -8.71875 L 6.53125 -4.34375 L 14.015625 -4.34375 L 14.015625 0 L 1.578125 0 L 1.578125 -21.734375 Z M 14.015625 -21.734375 "/></g></g></g><g fill="#62b0c6" fill-opacity="1"><g transform="translate(229.094729, 238.19102)"><g><path d="M 1.578125 -21.734375 L 9.359375 -21.734375 C 11.441406 -21.734375 13.140625 -21.175781 14.453125 -20.0625 C 15.773438 -18.945312 16.4375 -17.351562 16.4375 -15.28125 C 16.4375 -13.675781 16.035156 -12.332031 15.234375 -11.25 C 14.441406 -10.175781 13.359375 -9.421875 11.984375 -8.984375 L 19.46875 0 L 13.171875 0 L 6.53125 -8.59375 L 6.53125 0 L 1.578125 0 Z M 6.53125 -12.09375 L 7.109375 -12.09375 C 7.566406 -12.09375 7.953125 -12.097656 8.265625 -12.109375 C 8.585938 -12.128906 8.945312 -12.191406 9.34375 -12.296875 C 9.75 -12.398438 10.078125 -12.550781 10.328125 -12.75 C 10.578125 -12.945312 10.785156 -13.226562 10.953125 -13.59375 C 11.128906 -13.957031 11.21875 -14.40625 11.21875 -14.9375 C 11.21875 -15.46875 11.128906 -15.914062 10.953125 -16.28125 C 10.785156 -16.644531 10.578125 -16.921875 10.328125 -17.109375 C 10.078125 -17.304688 9.75 -17.457031 9.34375 -17.5625 C 8.945312 -17.675781 8.585938 -17.738281 8.265625 -17.75 C 7.953125 -17.769531 7.566406 -17.78125 7.109375 -17.78125 L 6.53125 -17.78125 Z M 6.53125 -12.09375 "/></g></g></g><g fill="#62b0c6" fill-opacity="1"><g transform="translate(249.933411, 238.19102)"><g><path d="M 12.625 -21.734375 L 21.390625 0 L 16.0625 0 L 14.46875 -4.34375 L 6.1875 -4.34375 L 4.578125 0 L -0.734375 0 L 8.03125 -21.734375 Z M 12.78125 -8.6875 L 10.359375 -15.015625 L 10.296875 -15.015625 L 7.875 -8.6875 Z M 12.78125 -8.6875 "/></g></g></g><g fill="#737373" fill-opacity="1"><g transform="translate(150.692427, 254.872426)"><g><path d="M 3.125 -4.109375 L 2.6875 0 L 1.015625 0 L 0.171875 -7.703125 L 1.34375 -7.703125 L 1.984375 -1.625 L 2.578125 -7.703125 L 3.734375 -7.703125 L 4.34375 -1.578125 L 4.96875 -7.703125 L 6.03125 -7.703125 L 5.171875 0 L 3.5625 0 Z M 3.125 -4.109375 "/></g></g></g><g fill="#737373" fill-opacity="1"><g transform="translate(161.281088, 254.872426)"><g><path d="M 1.65625 -4.453125 L 3.3125 -4.453125 L 3.3125 -3.359375 L 1.65625 -3.359375 L 1.65625 -1.09375 L 3.734375 -1.09375 L 3.734375 0 L 0.4375 0 L 0.4375 -7.703125 L 3.734375 -7.703125 L 3.734375 -6.59375 L 1.65625 -6.59375 Z M 1.65625 -4.453125 "/></g></g></g><g fill="#737373" fill-opacity="1"><g transform="translate(169.726271, 254.872426)"><g><path d="M 2.265625 -7.703125 C 2.898438 -7.703125 3.359375 -7.550781 3.640625 -7.25 C 3.921875 -6.957031 4.0625 -6.515625 4.0625 -5.921875 L 4.0625 -5.65625 C 4.0625 -5.257812 4 -4.929688 3.875 -4.671875 C 3.75 -4.421875 3.550781 -4.234375 3.28125 -4.109375 C 3.601562 -3.984375 3.832031 -3.773438 3.96875 -3.484375 C 4.113281 -3.203125 4.1875 -2.859375 4.1875 -2.453125 L 4.1875 -1.828125 C 4.1875 -1.234375 4.03125 -0.78125 3.71875 -0.46875 C 3.40625 -0.15625 2.945312 0 2.34375 0 L 0.4375 0 L 0.4375 -7.703125 Z M 1.65625 -3.46875 L 1.65625 -1.09375 L 2.34375 -1.09375 C 2.550781 -1.09375 2.707031 -1.148438 2.8125 -1.265625 C 2.914062 -1.378906 2.96875 -1.578125 2.96875 -1.859375 L 2.96875 -2.53125 C 2.96875 -2.882812 2.90625 -3.128906 2.78125 -3.265625 C 2.664062 -3.398438 2.46875 -3.46875 2.1875 -3.46875 Z M 1.65625 -6.59375 L 1.65625 -4.5625 L 2.125 -4.5625 C 2.351562 -4.5625 2.53125 -4.617188 2.65625 -4.734375 C 2.78125 -4.859375 2.84375 -5.070312 2.84375 -5.375 L 2.84375 -5.8125 C 2.84375 -6.082031 2.789062 -6.28125 2.6875 -6.40625 C 2.59375 -6.53125 2.441406 -6.59375 2.234375 -6.59375 Z M 1.65625 -6.59375 "/></g></g></g><g fill="#737373" fill-opacity="1"><g transform="translate(178.58915, 254.872426)"><g><path d="M 0.4375 -7.703125 L 2.359375 -7.703125 C 2.960938 -7.703125 3.410156 -7.539062 3.703125 -7.21875 C 4.003906 -6.894531 4.15625 -6.421875 4.15625 -5.796875 L 4.15625 -1.90625 C 4.15625 -1.28125 4.003906 -0.804688 3.703125 -0.484375 C 3.410156 -0.160156 2.960938 0 2.359375 0 L 0.4375 0 Z M 1.65625 -6.59375 L 1.65625 -1.09375 L 2.328125 -1.09375 C 2.523438 -1.09375 2.675781 -1.148438 2.78125 -1.265625 C 2.894531 -1.378906 2.953125 -1.570312 2.953125 -1.84375 L 2.953125 -5.859375 C 2.953125 -6.128906 2.894531 -6.316406 2.78125 -6.421875 C 2.675781 -6.535156 2.523438 -6.59375 2.328125 -6.59375 Z M 1.65625 -6.59375 "/></g></g></g><g fill="#737373" fill-opacity="1"><g transform="translate(187.474016, 254.872426)"><g><path d="M 1.65625 -4.453125 L 3.3125 -4.453125 L 3.3125 -3.359375 L 1.65625 -3.359375 L 1.65625 -1.09375 L 3.734375 -1.09375 L 3.734375 0 L 0.4375 0 L 0.4375 -7.703125 L 3.734375 -7.703125 L 3.734375 -6.59375 L 1.65625 -6.59375 Z M 1.65625 -4.453125 "/></g></g></g><g fill="#737373" fill-opacity="1"><g transform="translate(195.9192, 254.872426)"><g><path d="M 0.28125 -5.859375 C 0.28125 -6.472656 0.425781 -6.945312 0.71875 -7.28125 C 1.019531 -7.613281 1.46875 -7.78125 2.0625 -7.78125 C 2.65625 -7.78125 3.097656 -7.613281 3.390625 -7.28125 C 3.691406 -6.945312 3.84375 -6.472656 3.84375 -5.859375 L 3.84375 -5.609375 L 2.703125 -5.609375 L 2.703125 -5.921875 C 2.703125 -6.203125 2.648438 -6.398438 2.546875 -6.515625 C 2.441406 -6.628906 2.289062 -6.6875 2.09375 -6.6875 C 1.90625 -6.6875 1.757812 -6.628906 1.65625 -6.515625 C 1.550781 -6.398438 1.5 -6.203125 1.5 -5.921875 C 1.5 -5.660156 1.554688 -5.425781 1.671875 -5.21875 C 1.785156 -5.019531 1.929688 -4.832031 2.109375 -4.65625 C 2.285156 -4.476562 2.472656 -4.296875 2.671875 -4.109375 C 2.878906 -3.929688 3.070312 -3.738281 3.25 -3.53125 C 3.425781 -3.320312 3.570312 -3.078125 3.6875 -2.796875 C 3.800781 -2.523438 3.859375 -2.207031 3.859375 -1.84375 C 3.859375 -1.21875 3.707031 -0.738281 3.40625 -0.40625 C 3.101562 -0.0703125 2.65625 0.09375 2.0625 0.09375 C 1.46875 0.09375 1.015625 -0.0703125 0.703125 -0.40625 C 0.398438 -0.738281 0.25 -1.21875 0.25 -1.84375 L 0.25 -2.328125 L 1.390625 -2.328125 L 1.390625 -1.765625 C 1.390625 -1.492188 1.445312 -1.300781 1.5625 -1.1875 C 1.675781 -1.070312 1.832031 -1.015625 2.03125 -1.015625 C 2.21875 -1.015625 2.367188 -1.070312 2.484375 -1.1875 C 2.597656 -1.300781 2.65625 -1.492188 2.65625 -1.765625 C 2.65625 -2.035156 2.59375 -2.269531 2.46875 -2.46875 C 2.351562 -2.664062 2.207031 -2.851562 2.03125 -3.03125 C 1.851562 -3.21875 1.664062 -3.398438 1.46875 -3.578125 C 1.269531 -3.753906 1.082031 -3.945312 0.90625 -4.15625 C 0.726562 -4.375 0.578125 -4.617188 0.453125 -4.890625 C 0.335938 -5.160156 0.28125 -5.484375 0.28125 -5.859375 Z M 0.28125 -5.859375 "/></g></g></g><g fill="#737373" fill-opacity="1"><g transform="translate(204.430337, 254.872426)"><g><path d="M 0.4375 -7.703125 L 1.65625 -7.703125 L 1.65625 0 L 0.4375 0 Z M 0.4375 -7.703125 "/></g></g></g><g fill="#737373" fill-opacity="1"><g transform="translate(210.918902, 254.872426)"><g><path d="M 2.25 -4.296875 L 3.953125 -4.296875 L 3.953125 -1.84375 C 3.953125 -1.21875 3.796875 -0.738281 3.484375 -0.40625 C 3.179688 -0.0703125 2.734375 0.09375 2.140625 0.09375 C 1.546875 0.09375 1.097656 -0.0703125 0.796875 -0.40625 C 0.492188 -0.738281 0.34375 -1.21875 0.34375 -1.84375 L 0.34375 -5.859375 C 0.34375 -6.472656 0.492188 -6.945312 0.796875 -7.28125 C 1.097656 -7.613281 1.546875 -7.78125 2.140625 -7.78125 C 2.734375 -7.78125 3.179688 -7.613281 3.484375 -7.28125 C 3.796875 -6.945312 3.953125 -6.472656 3.953125 -5.859375 L 3.953125 -5.109375 L 2.8125 -5.109375 L 2.8125 -5.921875 C 2.8125 -6.203125 2.753906 -6.398438 2.640625 -6.515625 C 2.523438 -6.628906 2.367188 -6.6875 2.171875 -6.6875 C 1.984375 -6.6875 1.832031 -6.628906 1.71875 -6.515625 C 1.601562 -6.398438 1.546875 -6.203125 1.546875 -5.921875 L 1.546875 -1.765625 C 1.546875 -1.492188 1.601562 -1.300781 1.71875 -1.1875 C 1.832031 -1.070312 1.984375 -1.015625 2.171875 -1.015625 C 2.367188 -1.015625 2.523438 -1.070312 2.640625 -1.1875 C 2.753906 -1.300781 2.8125 -1.492188 2.8125 -1.765625 L 2.8125 -3.1875 L 2.25 -3.1875 Z M 2.25 -4.296875 "/></g></g></g><g fill="#737373" fill-opacity="1"><g transform="translate(219.605911, 254.872426)"><g><path d="M 1.515625 -5.578125 L 1.515625 0 L 0.421875 0 L 0.421875 -7.703125 L 1.953125 -7.703125 L 3.1875 -3.09375 L 3.1875 -7.703125 L 4.265625 -7.703125 L 4.265625 0 L 3.03125 0 Z M 1.515625 -5.578125 "/></g></g></g></svg>