<svg xmlns="http://www.w3.org/2000/svg" xmlns:xlink="http://www.w3.org/1999/xlink" width="500" zoomAndPan="magnify" viewBox="0 0 375 374.999991" height="500" preserveAspectRatio="xMidYMid meet" version="1.0"><defs><g/><clipPath id="11a48821c2"><path d="M 105 68.84375 L 270 68.84375 L 270 195 L 105 195 Z M 105 68.84375 " clip-rule="nonzero"/></clipPath></defs><rect x="-37.5" width="450" fill="#ffffff" y="-37.499999" height="449.999989" fill-opacity="1"/><rect x="-37.5" width="450" fill="#ffffff" y="-37.499999" height="449.999989" fill-opacity="1"/><path fill="#211d1d" d="M 92.523438 184.191406 C 70.261719 171.316406 25.089844 145.191406 24.765625 145.003906 C 44.167969 133.78125 89.339844 107.65625 92.523438 105.816406 C 98.921875 102.117188 93.148438 92.179688 86.734375 95.886719 C 64.46875 108.765625 42.207031 121.640625 19.945312 134.515625 C 16.761719 136.355469 13.574219 138.199219 10.390625 140.039062 C 6.667969 142.191406 6.667969 147.8125 10.390625 149.96875 C 32.652344 162.84375 83.546875 192.277344 86.734375 194.121094 C 93.140625 197.824219 98.925781 187.894531 92.523438 184.191406 " fill-opacity="1" fill-rule="nonzero"/><path fill="#211d1d" d="M 364.453125 140.039062 C 342.1875 127.164062 291.292969 97.730469 288.109375 95.886719 C 281.703125 92.183594 275.917969 102.113281 282.316406 105.816406 C 304.578125 118.691406 349.75 144.816406 350.078125 145.003906 C 330.675781 156.226562 285.503906 182.351562 282.316406 184.191406 C 275.921875 187.890625 281.695312 197.828125 288.109375 194.121094 C 310.371094 181.242188 361.265625 151.808594 364.453125 149.96875 C 368.175781 147.8125 368.175781 142.191406 364.453125 140.039062 " fill-opacity="1" fill-rule="nonzero"/><g clip-path="url(#11a48821c2)"><path fill="#62b0c6" d="M 201.03125 130.652344 L 188.683594 130.652344 L 188.683594 118.269531 L 201.03125 118.269531 Z M 201.03125 145.570312 L 188.683594 145.570312 L 188.683594 133.183594 L 201.03125 133.183594 Z M 173.796875 145.570312 L 173.796875 133.183594 L 186.160156 133.183594 L 186.160156 145.570312 Z M 173.796875 118.269531 L 186.160156 118.269531 L 186.160156 130.652344 L 173.796875 130.652344 Z M 268.027344 132.996094 C 261.222656 127.5 254.421875 122.007812 247.617188 116.511719 L 247.617188 99.503906 C 247.617188 98.371094 246.753906 97.445312 245.675781 97.445312 L 236.421875 97.445312 C 235.347656 97.445312 234.480469 98.371094 234.480469 99.503906 L 234.480469 105.902344 C 228.753906 101.277344 223.023438 96.652344 217.273438 92.027344 C 208.132812 84.644531 198.976562 77.246094 189.816406 69.863281 C 189.117188 69.144531 188.269531 68.863281 187.421875 68.898438 C 186.574219 68.863281 185.722656 69.144531 185.027344 69.863281 C 168.101562 83.511719 151.179688 97.160156 134.277344 110.832031 C 125.113281 118.210938 115.953125 125.59375 106.8125 132.996094 C 104.402344 134.921875 106.476562 138.789062 109.210938 138.789062 L 127.207031 138.789062 L 127.207031 191.539062 C 127.207031 193.390625 128.773438 194.933594 130.621094 194.933594 L 244.226562 194.933594 C 246.070312 194.933594 247.617188 193.390625 247.617188 191.539062 L 247.617188 138.789062 L 265.632812 138.789062 C 268.367188 138.789062 270.4375 134.921875 268.027344 132.996094 " fill-opacity="1" fill-rule="nonzero"/></g><g fill="#000000" fill-opacity="1"><g transform="translate(49.625243, 271.598175)"><g><path d="M 20.9375 -36.0625 L 35.5 0 L 26.671875 0 L 24 -7.21875 L 10.28125 -7.21875 L 7.609375 0 L -1.21875 0 L 13.328125 -36.0625 Z M 21.203125 -14.421875 L 17.1875 -24.921875 L 17.09375 -24.921875 L 13.078125 -14.421875 Z M 21.203125 -14.421875 "/></g></g></g><g fill="#62b0c6" fill-opacity="1"><g transform="translate(87.186792, 271.598175)"><g><path d="M 21.8125 -7.4375 C 23.070312 -7.4375 24.289062 -7.625 25.46875 -8 C 26.644531 -8.375 27.507812 -8.738281 28.0625 -9.09375 L 28.890625 -9.65625 L 32.390625 -2.671875 C 32.273438 -2.578125 32.113281 -2.457031 31.90625 -2.3125 C 31.707031 -2.164062 31.234375 -1.894531 30.484375 -1.5 C 29.742188 -1.113281 28.953125 -0.773438 28.109375 -0.484375 C 27.265625 -0.191406 26.15625 0.0664062 24.78125 0.296875 C 23.414062 0.535156 22.003906 0.65625 20.546875 0.65625 C 17.191406 0.65625 14.015625 -0.164062 11.015625 -1.8125 C 8.015625 -3.457031 5.59375 -5.722656 3.75 -8.609375 C 1.914062 -11.492188 1 -14.613281 1 -17.96875 C 1 -20.5 1.535156 -22.929688 2.609375 -25.265625 C 3.691406 -27.597656 5.128906 -29.59375 6.921875 -31.25 C 8.722656 -32.914062 10.816406 -34.242188 13.203125 -35.234375 C 15.585938 -36.222656 18.035156 -36.71875 20.546875 -36.71875 C 22.878906 -36.71875 25.03125 -36.441406 27 -35.890625 C 28.96875 -35.335938 30.359375 -34.785156 31.171875 -34.234375 L 32.390625 -33.40625 L 28.890625 -26.40625 C 28.691406 -26.582031 28.390625 -26.789062 27.984375 -27.03125 C 27.578125 -27.28125 26.757812 -27.609375 25.53125 -28.015625 C 24.3125 -28.429688 23.070312 -28.640625 21.8125 -28.640625 C 19.832031 -28.640625 18.054688 -28.316406 16.484375 -27.671875 C 14.910156 -27.035156 13.660156 -26.191406 12.734375 -25.140625 C 11.816406 -24.085938 11.117188 -22.957031 10.640625 -21.75 C 10.160156 -20.539062 9.921875 -19.3125 9.921875 -18.0625 C 9.921875 -15.320312 10.945312 -12.863281 13 -10.6875 C 15.0625 -8.519531 18 -7.4375 21.8125 -7.4375 Z M 21.8125 -7.4375 "/></g></g></g><g fill="#62b0c6" fill-opacity="1"><g transform="translate(123.375962, 271.598175)"><g><path d="M 20.9375 -36.0625 L 35.5 0 L 26.671875 0 L 24 -7.21875 L 10.28125 -7.21875 L 7.609375 0 L -1.21875 0 L 13.328125 -36.0625 Z M 21.203125 -14.421875 L 17.1875 -24.921875 L 17.09375 -24.921875 L 13.078125 -14.421875 Z M 21.203125 -14.421875 "/></g></g></g><g fill="#62b0c6" fill-opacity="1"><g transform="translate(160.919982, 271.598175)"><g><path d="M 2.625 -36.0625 L 13.8125 -36.0625 C 17.195312 -36.0625 19.894531 -35.335938 21.90625 -33.890625 C 23.914062 -32.453125 24.921875 -30.117188 24.921875 -26.890625 C 24.921875 -23.273438 23.421875 -20.695312 20.421875 -19.15625 C 25.546875 -18.25 28.109375 -15.21875 28.109375 -10.0625 C 28.109375 -7.03125 27.054688 -4.59375 24.953125 -2.75 C 22.859375 -0.914062 19.976562 0 16.3125 0 L 2.625 0 Z M 10.84375 -21.953125 L 11.5 -21.953125 C 13.332031 -21.953125 14.703125 -22.269531 15.609375 -22.90625 C 16.515625 -23.550781 16.96875 -24.601562 16.96875 -26.0625 C 16.96875 -28.507812 15.144531 -29.734375 11.5 -29.734375 L 10.84375 -29.734375 Z M 10.84375 -6.34375 L 13.421875 -6.34375 C 17.441406 -6.34375 19.453125 -7.679688 19.453125 -10.359375 C 19.453125 -11.960938 18.945312 -13.113281 17.9375 -13.8125 C 16.9375 -14.507812 15.429688 -14.859375 13.421875 -14.859375 L 10.84375 -14.859375 Z M 10.84375 -6.34375 "/></g></g></g><g fill="#62b0c6" fill-opacity="1"><g transform="translate(193.306796, 271.598175)"><g><path d="M 2.625 -36.0625 L 15.515625 -36.0625 C 18.984375 -36.0625 21.8125 -35.132812 24 -33.28125 C 26.1875 -31.4375 27.28125 -28.796875 27.28125 -25.359375 C 27.28125 -22.703125 26.613281 -20.476562 25.28125 -18.6875 C 23.957031 -16.894531 22.160156 -15.632812 19.890625 -14.90625 L 32.3125 0 L 21.859375 0 L 10.84375 -14.25 L 10.84375 0 L 2.625 0 Z M 10.84375 -20.0625 L 11.796875 -20.0625 C 12.554688 -20.0625 13.195312 -20.078125 13.71875 -20.109375 C 14.25 -20.140625 14.847656 -20.238281 15.515625 -20.40625 C 16.191406 -20.582031 16.734375 -20.832031 17.140625 -21.15625 C 17.546875 -21.476562 17.894531 -21.945312 18.1875 -22.5625 C 18.476562 -23.175781 18.625 -23.914062 18.625 -24.78125 C 18.625 -25.65625 18.476562 -26.398438 18.1875 -27.015625 C 17.894531 -27.628906 17.546875 -28.09375 17.140625 -28.40625 C 16.734375 -28.726562 16.191406 -28.976562 15.515625 -29.15625 C 14.847656 -29.332031 14.25 -29.4375 13.71875 -29.46875 C 13.195312 -29.5 12.554688 -29.515625 11.796875 -29.515625 L 10.84375 -29.515625 Z M 10.84375 -20.0625 "/></g></g></g><g fill="#62b0c6" fill-opacity="1"><g transform="translate(227.878865, 271.598175)"><g><path d="M 23.265625 -36.0625 L 23.265625 -28.859375 L 10.84375 -28.859375 L 10.84375 -21.6875 L 22.734375 -21.6875 L 22.734375 -14.46875 L 10.84375 -14.46875 L 10.84375 -7.21875 L 23.265625 -7.21875 L 23.265625 0 L 2.625 0 L 2.625 -36.0625 Z M 23.265625 -36.0625 "/></g></g></g><g fill="#62b0c6" fill-opacity="1"><g transform="translate(256.507042, 271.598175)"><g><path d="M 2.625 -36.0625 L 15.515625 -36.0625 C 18.984375 -36.0625 21.8125 -35.132812 24 -33.28125 C 26.1875 -31.4375 27.28125 -28.796875 27.28125 -25.359375 C 27.28125 -22.703125 26.613281 -20.476562 25.28125 -18.6875 C 23.957031 -16.894531 22.160156 -15.632812 19.890625 -14.90625 L 32.3125 0 L 21.859375 0 L 10.84375 -14.25 L 10.84375 0 L 2.625 0 Z M 10.84375 -20.0625 L 11.796875 -20.0625 C 12.554688 -20.0625 13.195312 -20.078125 13.71875 -20.109375 C 14.25 -20.140625 14.847656 -20.238281 15.515625 -20.40625 C 16.191406 -20.582031 16.734375 -20.832031 17.140625 -21.15625 C 17.546875 -21.476562 17.894531 -21.945312 18.1875 -22.5625 C 18.476562 -23.175781 18.625 -23.914062 18.625 -24.78125 C 18.625 -25.65625 18.476562 -26.398438 18.1875 -27.015625 C 17.894531 -27.628906 17.546875 -28.09375 17.140625 -28.40625 C 16.734375 -28.726562 16.191406 -28.976562 15.515625 -29.15625 C 14.847656 -29.332031 14.25 -29.4375 13.71875 -29.46875 C 13.195312 -29.5 12.554688 -29.515625 11.796875 -29.515625 L 10.84375 -29.515625 Z M 10.84375 -20.0625 "/></g></g></g><g fill="#62b0c6" fill-opacity="1"><g transform="translate(291.079112, 271.598175)"><g><path d="M 20.9375 -36.0625 L 35.5 0 L 26.671875 0 L 24 -7.21875 L 10.28125 -7.21875 L 7.609375 0 L -1.21875 0 L 13.328125 -36.0625 Z M 21.203125 -14.421875 L 17.1875 -24.921875 L 17.09375 -24.921875 L 13.078125 -14.421875 Z M 21.203125 -14.421875 "/></g></g></g><g fill="#737373" fill-opacity="1"><g transform="translate(126.435005, 299.273015)"><g><path d="M 5.171875 -6.796875 L 4.453125 0 L 1.703125 0 L 0.28125 -12.765625 L 2.21875 -12.765625 L 3.296875 -2.703125 L 4.265625 -12.765625 L 6.203125 -12.765625 L 7.203125 -2.625 L 8.234375 -12.765625 L 10 -12.765625 L 8.5625 0 L 5.90625 0 Z M 5.171875 -6.796875 "/></g></g></g><g fill="#737373" fill-opacity="1"><g transform="translate(144.001947, 299.273015)"><g><path d="M 2.734375 -7.390625 L 5.484375 -7.390625 L 5.484375 -5.5625 L 2.734375 -5.5625 L 2.734375 -1.828125 L 6.203125 -1.828125 L 6.203125 0 L 0.734375 0 L 0.734375 -12.765625 L 6.203125 -12.765625 L 6.203125 -10.9375 L 2.734375 -10.9375 Z M 2.734375 -7.390625 "/></g></g></g><g fill="#737373" fill-opacity="1"><g transform="translate(158.012787, 299.273015)"><g><path d="M 3.75 -12.765625 C 4.800781 -12.765625 5.5625 -12.519531 6.03125 -12.03125 C 6.5 -11.550781 6.734375 -10.816406 6.734375 -9.828125 L 6.734375 -9.375 C 6.734375 -8.71875 6.628906 -8.175781 6.421875 -7.75 C 6.210938 -7.320312 5.882812 -7.003906 5.4375 -6.796875 C 5.976562 -6.585938 6.359375 -6.25 6.578125 -5.78125 C 6.804688 -5.320312 6.921875 -4.75 6.921875 -4.0625 L 6.921875 -3.03125 C 6.921875 -2.039062 6.664062 -1.285156 6.15625 -0.765625 C 5.644531 -0.253906 4.890625 0 3.890625 0 L 0.734375 0 L 0.734375 -12.765625 Z M 2.734375 -5.75 L 2.734375 -1.828125 L 3.890625 -1.828125 C 4.222656 -1.828125 4.476562 -1.914062 4.65625 -2.09375 C 4.832031 -2.28125 4.921875 -2.609375 4.921875 -3.078125 L 4.921875 -4.1875 C 4.921875 -4.789062 4.820312 -5.203125 4.625 -5.421875 C 4.425781 -5.640625 4.09375 -5.75 3.625 -5.75 Z M 2.734375 -10.9375 L 2.734375 -7.5625 L 3.515625 -7.5625 C 3.890625 -7.5625 4.179688 -7.660156 4.390625 -7.859375 C 4.609375 -8.054688 4.71875 -8.410156 4.71875 -8.921875 L 4.71875 -9.625 C 4.71875 -10.09375 4.632812 -10.425781 4.46875 -10.625 C 4.3125 -10.832031 4.054688 -10.9375 3.703125 -10.9375 Z M 2.734375 -10.9375 "/></g></g></g><g fill="#737373" fill-opacity="1"><g transform="translate(172.716599, 299.273015)"><g><path d="M 0.734375 -12.765625 L 3.90625 -12.765625 C 4.914062 -12.765625 5.664062 -12.492188 6.15625 -11.953125 C 6.644531 -11.421875 6.890625 -10.640625 6.890625 -9.609375 L 6.890625 -3.15625 C 6.890625 -2.125 6.644531 -1.335938 6.15625 -0.796875 C 5.664062 -0.265625 4.914062 0 3.90625 0 L 0.734375 0 Z M 2.734375 -10.9375 L 2.734375 -1.828125 L 3.859375 -1.828125 C 4.179688 -1.828125 4.429688 -1.914062 4.609375 -2.09375 C 4.796875 -2.28125 4.890625 -2.601562 4.890625 -3.0625 L 4.890625 -9.703125 C 4.890625 -10.160156 4.796875 -10.476562 4.609375 -10.65625 C 4.429688 -10.84375 4.179688 -10.9375 3.859375 -10.9375 Z M 2.734375 -10.9375 "/></g></g></g><g fill="#737373" fill-opacity="1"><g transform="translate(187.456888, 299.273015)"><g><path d="M 2.734375 -7.390625 L 5.484375 -7.390625 L 5.484375 -5.5625 L 2.734375 -5.5625 L 2.734375 -1.828125 L 6.203125 -1.828125 L 6.203125 0 L 0.734375 0 L 0.734375 -12.765625 L 6.203125 -12.765625 L 6.203125 -10.9375 L 2.734375 -10.9375 Z M 2.734375 -7.390625 "/></g></g></g><g fill="#737373" fill-opacity="1"><g transform="translate(201.46773, 299.273015)"><g><path d="M 0.46875 -9.703125 C 0.46875 -10.734375 0.710938 -11.523438 1.203125 -12.078125 C 1.703125 -12.628906 2.441406 -12.90625 3.421875 -12.90625 C 4.410156 -12.90625 5.148438 -12.628906 5.640625 -12.078125 C 6.128906 -11.523438 6.375 -10.734375 6.375 -9.703125 L 6.375 -9.296875 L 4.484375 -9.296875 L 4.484375 -9.828125 C 4.484375 -10.285156 4.394531 -10.609375 4.21875 -10.796875 C 4.039062 -10.992188 3.796875 -11.09375 3.484375 -11.09375 C 3.171875 -11.09375 2.925781 -10.992188 2.75 -10.796875 C 2.570312 -10.609375 2.484375 -10.285156 2.484375 -9.828125 C 2.484375 -9.390625 2.578125 -9.003906 2.765625 -8.671875 C 2.960938 -8.335938 3.207031 -8.019531 3.5 -7.71875 C 3.789062 -7.425781 4.101562 -7.128906 4.4375 -6.828125 C 4.769531 -6.523438 5.082031 -6.195312 5.375 -5.84375 C 5.664062 -5.5 5.910156 -5.097656 6.109375 -4.640625 C 6.304688 -4.191406 6.40625 -3.664062 6.40625 -3.0625 C 6.40625 -2.03125 6.148438 -1.238281 5.640625 -0.6875 C 5.140625 -0.132812 4.394531 0.140625 3.40625 0.140625 C 2.425781 0.140625 1.679688 -0.132812 1.171875 -0.6875 C 0.671875 -1.238281 0.421875 -2.03125 0.421875 -3.0625 L 0.421875 -3.84375 L 2.3125 -3.84375 L 2.3125 -2.9375 C 2.3125 -2.476562 2.40625 -2.15625 2.59375 -1.96875 C 2.78125 -1.789062 3.035156 -1.703125 3.359375 -1.703125 C 3.671875 -1.703125 3.921875 -1.789062 4.109375 -1.96875 C 4.296875 -2.15625 4.390625 -2.476562 4.390625 -2.9375 C 4.390625 -3.375 4.289062 -3.757812 4.09375 -4.09375 C 3.90625 -4.425781 3.664062 -4.738281 3.375 -5.03125 C 3.082031 -5.332031 2.769531 -5.628906 2.4375 -5.921875 C 2.101562 -6.222656 1.789062 -6.550781 1.5 -6.90625 C 1.207031 -7.257812 0.960938 -7.660156 0.765625 -8.109375 C 0.566406 -8.554688 0.46875 -9.085938 0.46875 -9.703125 Z M 0.46875 -9.703125 "/></g></g></g><g fill="#737373" fill-opacity="1"><g transform="translate(215.587989, 299.273015)"><g><path d="M 0.734375 -12.765625 L 2.734375 -12.765625 L 2.734375 0 L 0.734375 0 Z M 0.734375 -12.765625 "/></g></g></g><g fill="#737373" fill-opacity="1"><g transform="translate(226.352735, 299.273015)"><g><path d="M 3.734375 -7.109375 L 6.546875 -7.109375 L 6.546875 -3.0625 C 6.546875 -2.03125 6.289062 -1.238281 5.78125 -0.6875 C 5.28125 -0.132812 4.539062 0.140625 3.5625 0.140625 C 2.570312 0.140625 1.820312 -0.132812 1.3125 -0.6875 C 0.8125 -1.238281 0.5625 -2.03125 0.5625 -3.0625 L 0.5625 -9.703125 C 0.5625 -10.734375 0.8125 -11.523438 1.3125 -12.078125 C 1.820312 -12.628906 2.570312 -12.90625 3.5625 -12.90625 C 4.539062 -12.90625 5.28125 -12.628906 5.78125 -12.078125 C 6.289062 -11.523438 6.546875 -10.734375 6.546875 -9.703125 L 6.546875 -8.453125 L 4.65625 -8.453125 L 4.65625 -9.828125 C 4.65625 -10.285156 4.554688 -10.609375 4.359375 -10.796875 C 4.171875 -10.992188 3.921875 -11.09375 3.609375 -11.09375 C 3.296875 -11.09375 3.046875 -10.992188 2.859375 -10.796875 C 2.671875 -10.609375 2.578125 -10.285156 2.578125 -9.828125 L 2.578125 -2.9375 C 2.578125 -2.476562 2.671875 -2.15625 2.859375 -1.96875 C 3.046875 -1.789062 3.296875 -1.703125 3.609375 -1.703125 C 3.921875 -1.703125 4.171875 -1.789062 4.359375 -1.96875 C 4.554688 -2.15625 4.65625 -2.476562 4.65625 -2.9375 L 4.65625 -5.28125 L 3.734375 -5.28125 Z M 3.734375 -7.109375 "/></g></g></g><g fill="#737373" fill-opacity="1"><g transform="translate(240.764773, 299.273015)"><g><path d="M 2.515625 -9.25 L 2.515625 0 L 0.71875 0 L 0.71875 -12.765625 L 3.234375 -12.765625 L 5.28125 -5.125 L 5.28125 -12.765625 L 7.078125 -12.765625 L 7.078125 0 L 5.015625 0 Z M 2.515625 -9.25 "/></g></g></g></svg>