<svg xmlns="http://www.w3.org/2000/svg" xmlns:xlink="http://www.w3.org/1999/xlink" width="500" zoomAndPan="magnify" viewBox="0 0 375 374.999991" height="500" preserveAspectRatio="xMidYMid meet" version="1.0"><defs><g/><clipPath id="ff2e49359c"><path d="M 4.011719 149.644531 L 360.019531 149.644531 L 360.019531 190.949219 L 4.011719 190.949219 Z M 4.011719 149.644531 " clip-rule="nonzero"/></clipPath></defs><rect x="-37.5" width="450" fill="#ffffff" y="-37.499999" height="449.999989" fill-opacity="1"/><rect x="-37.5" width="450" fill="#fafafa" y="-37.499999" height="449.999989" fill-opacity="1"/><g fill="#000000" fill-opacity="1"><g transform="translate(178.869694, 246.402202)"><g><path d="M 134.234375 -47.71875 C 133.453125 -47.71875 132.671875 -46.859375 131.890625 -45.140625 C 129.066406 -38.710938 126.007812 -32.71875 122.71875 -27.15625 C 119.425781 -21.59375 115.664062 -16.769531 111.4375 -12.6875 C 107.207031 -8.613281 102.503906 -5.441406 97.328125 -3.171875 C 92.160156 -0.898438 86.441406 0.234375 80.171875 0.234375 C 65.910156 0.234375 55.328125 -5.328125 48.421875 -16.453125 C 41.523438 -27.578125 38.078125 -43.878906 38.078125 -65.359375 L 38.078125 -91.6875 C 38.078125 -112.375 41.601562 -128.320312 48.65625 -139.53125 C 55.71875 -150.738281 66.613281 -156.34375 81.34375 -156.34375 C 87.457031 -156.34375 93.019531 -155.359375 98.03125 -153.390625 C 103.050781 -151.429688 107.597656 -148.726562 111.671875 -145.28125 C 115.742188 -141.832031 119.269531 -137.679688 122.25 -132.828125 C 125.226562 -127.972656 127.65625 -122.722656 129.53125 -117.078125 C 130 -115.503906 130.550781 -114.71875 131.1875 -114.71875 C 131.96875 -114.71875 132.359375 -115.660156 132.359375 -117.546875 L 132.359375 -155.875 C 132.359375 -157.28125 132.203125 -158.21875 131.890625 -158.6875 C 131.578125 -159.15625 131.109375 -159.390625 130.484375 -159.390625 C 129.691406 -159.390625 128.671875 -158.765625 127.421875 -157.515625 L 118.25 -148.109375 C 113.238281 -152.179688 107.597656 -155.273438 101.328125 -157.390625 C 95.054688 -159.503906 88.394531 -160.5625 81.34375 -160.5625 C 71 -160.5625 61.398438 -158.210938 52.546875 -153.515625 C 43.691406 -148.816406 36.007812 -142.625 29.5 -134.9375 C 23 -127.257812 17.945312 -118.519531 14.34375 -108.71875 C 10.738281 -98.925781 8.9375 -89.015625 8.9375 -78.984375 C 8.9375 -67.390625 11.007812 -56.535156 15.15625 -46.421875 C 19.3125 -36.316406 24.757812 -27.503906 31.5 -19.984375 C 38.238281 -12.460938 45.835938 -6.503906 54.296875 -2.109375 C 62.765625 2.273438 71.390625 4.46875 80.171875 4.46875 C 87.535156 4.46875 94.585938 3.015625 101.328125 0.109375 C 108.066406 -2.785156 114.097656 -7.210938 119.421875 -13.171875 L 131.890625 0.46875 C 132.671875 1.25 133.375 1.640625 134 1.640625 C 134.9375 1.640625 135.40625 1.09375 135.40625 0 L 135.40625 -45.375 C 135.40625 -46.9375 135.015625 -47.71875 134.234375 -47.71875 Z M 134.234375 -47.71875 "/></g></g></g><g fill="#000000" fill-opacity="1"><g transform="translate(25.805528, 249.875894)"><g><path d="M 5.25 -3.828125 L 5.25 0 L 58.28125 0 L 58.28125 -3.828125 L 30.09375 -3.828125 L 45.140625 -49.921875 L 93.140625 -49.921875 L 108.671875 -3.828125 L 84.0625 -3.828125 L 84.0625 0 L 154.046875 0 L 154.046875 -3.828125 L 133.265625 -3.828125 L 80.96875 -162.640625 L 78.09375 -162.640625 L 25.796875 -3.828125 Z M 69.015625 -122.046875 L 91.953125 -53.734375 L 46.578125 -53.734375 Z M 69.015625 -122.046875 "/></g></g></g><g clip-path="url(#ff2e49359c)"><path fill="#fafafa" d="M 4.011719 149.644531 L 360.097656 149.644531 L 360.097656 190.949219 L 4.011719 190.949219 Z M 4.011719 149.644531 " fill-opacity="1" fill-rule="nonzero"/></g><g fill="#000000" fill-opacity="1"><g transform="translate(90.787796, 175.992505)"><g><path d="M 10.0625 -2.765625 L 4.046875 -2.765625 L 2.90625 0 L -0.171875 0 L 5.59375 -12.9375 L 8.5625 -12.9375 L 14.34375 0 L 11.203125 0 Z M 9.109375 -5.046875 L 7.0625 -10 L 5.015625 -5.046875 Z M 9.109375 -5.046875 "/></g></g></g><g fill="#000000" fill-opacity="1"><g transform="translate(111.341049, 175.992505)"><g><path d="M 2.421875 0.140625 C 1.910156 0.140625 1.484375 -0.03125 1.140625 -0.375 C 0.796875 -0.71875 0.625 -1.144531 0.625 -1.65625 C 0.625 -2.1875 0.796875 -2.613281 1.140625 -2.9375 C 1.484375 -3.269531 1.910156 -3.4375 2.421875 -3.4375 C 2.921875 -3.4375 3.34375 -3.269531 3.6875 -2.9375 C 4.039062 -2.613281 4.21875 -2.1875 4.21875 -1.65625 C 4.21875 -1.144531 4.039062 -0.71875 3.6875 -0.375 C 3.34375 -0.03125 2.921875 0.140625 2.421875 0.140625 Z M 2.421875 0.140625 "/></g></g></g><g fill="#000000" fill-opacity="1"><g transform="translate(122.57896, 175.992505)"><g/></g></g><g fill="#000000" fill-opacity="1"><g transform="translate(134.20501, 175.992505)"><g><path d="M 7.71875 0.21875 C 6.40625 0.21875 5.210938 -0.0664062 4.140625 -0.640625 C 3.078125 -1.210938 2.238281 -2.003906 1.625 -3.015625 C 1.019531 -4.035156 0.71875 -5.1875 0.71875 -6.46875 C 0.71875 -7.75 1.019531 -8.894531 1.625 -9.90625 C 2.238281 -10.925781 3.078125 -11.722656 4.140625 -12.296875 C 5.210938 -12.867188 6.414062 -13.15625 7.75 -13.15625 C 8.863281 -13.15625 9.875 -12.957031 10.78125 -12.5625 C 11.6875 -12.175781 12.445312 -11.613281 13.0625 -10.875 L 11.140625 -9.09375 C 10.265625 -10.101562 9.179688 -10.609375 7.890625 -10.609375 C 7.085938 -10.609375 6.375 -10.429688 5.75 -10.078125 C 5.125 -9.734375 4.632812 -9.242188 4.28125 -8.609375 C 3.925781 -7.984375 3.75 -7.269531 3.75 -6.46875 C 3.75 -5.664062 3.925781 -4.945312 4.28125 -4.3125 C 4.632812 -3.6875 5.125 -3.195312 5.75 -2.84375 C 6.375 -2.5 7.085938 -2.328125 7.890625 -2.328125 C 9.179688 -2.328125 10.265625 -2.835938 11.140625 -3.859375 L 13.0625 -2.09375 C 12.445312 -1.34375 11.679688 -0.769531 10.765625 -0.375 C 9.859375 0.0195312 8.84375 0.21875 7.71875 0.21875 Z M 7.71875 0.21875 "/></g></g></g><g fill="#000000" fill-opacity="1"><g transform="translate(154.148342, 175.992505)"><g><path d="M 10.0625 -2.765625 L 4.046875 -2.765625 L 2.90625 0 L -0.171875 0 L 5.59375 -12.9375 L 8.5625 -12.9375 L 14.34375 0 L 11.203125 0 Z M 9.109375 -5.046875 L 7.0625 -10 L 5.015625 -5.046875 Z M 9.109375 -5.046875 "/></g></g></g><g fill="#000000" fill-opacity="1"><g transform="translate(174.701592, 175.992505)"><g><path d="M 11.03125 -6.734375 C 11.769531 -6.492188 12.347656 -6.097656 12.765625 -5.546875 C 13.191406 -5.003906 13.40625 -4.332031 13.40625 -3.53125 C 13.40625 -2.394531 12.960938 -1.519531 12.078125 -0.90625 C 11.203125 -0.300781 9.914062 0 8.21875 0 L 1.53125 0 L 1.53125 -12.9375 L 7.859375 -12.9375 C 9.429688 -12.9375 10.640625 -12.632812 11.484375 -12.03125 C 12.328125 -11.425781 12.75 -10.609375 12.75 -9.578125 C 12.75 -8.941406 12.597656 -8.378906 12.296875 -7.890625 C 11.992188 -7.398438 11.570312 -7.015625 11.03125 -6.734375 Z M 4.515625 -10.6875 L 4.515625 -7.640625 L 7.484375 -7.640625 C 8.222656 -7.640625 8.78125 -7.765625 9.15625 -8.015625 C 9.539062 -8.273438 9.734375 -8.660156 9.734375 -9.171875 C 9.734375 -9.671875 9.539062 -10.046875 9.15625 -10.296875 C 8.78125 -10.554688 8.222656 -10.6875 7.484375 -10.6875 Z M 8 -2.25 C 8.789062 -2.25 9.382812 -2.378906 9.78125 -2.640625 C 10.1875 -2.898438 10.390625 -3.300781 10.390625 -3.84375 C 10.390625 -4.914062 9.59375 -5.453125 8 -5.453125 L 4.515625 -5.453125 L 4.515625 -2.25 Z M 8 -2.25 "/></g></g></g><g fill="#000000" fill-opacity="1"><g transform="translate(195.236372, 175.992505)"><g><path d="M 9.78125 0 L 7.28125 -3.609375 L 4.53125 -3.609375 L 4.53125 0 L 1.53125 0 L 1.53125 -12.9375 L 7.140625 -12.9375 C 8.285156 -12.9375 9.28125 -12.742188 10.125 -12.359375 C 10.96875 -11.984375 11.613281 -11.441406 12.0625 -10.734375 C 12.519531 -10.035156 12.75 -9.207031 12.75 -8.25 C 12.75 -7.28125 12.519531 -6.445312 12.0625 -5.75 C 11.601562 -5.0625 10.945312 -4.53125 10.09375 -4.15625 L 13 0 Z M 9.71875 -8.25 C 9.71875 -8.96875 9.484375 -9.519531 9.015625 -9.90625 C 8.546875 -10.300781 7.863281 -10.5 6.96875 -10.5 L 4.53125 -10.5 L 4.53125 -5.984375 L 6.96875 -5.984375 C 7.863281 -5.984375 8.546875 -6.179688 9.015625 -6.578125 C 9.484375 -6.972656 9.71875 -7.53125 9.71875 -8.25 Z M 9.71875 -8.25 "/></g></g></g><g fill="#000000" fill-opacity="1"><g transform="translate(215.216657, 175.992505)"><g><path d="M 11.546875 -2.40625 L 11.546875 0 L 1.53125 0 L 1.53125 -12.9375 L 11.3125 -12.9375 L 11.3125 -10.53125 L 4.515625 -10.53125 L 4.515625 -7.71875 L 10.515625 -7.71875 L 10.515625 -5.390625 L 4.515625 -5.390625 L 4.515625 -2.40625 Z M 11.546875 -2.40625 "/></g></g></g><g fill="#000000" fill-opacity="1"><g transform="translate(234.01404, 175.992505)"><g><path d="M 9.78125 0 L 7.28125 -3.609375 L 4.53125 -3.609375 L 4.53125 0 L 1.53125 0 L 1.53125 -12.9375 L 7.140625 -12.9375 C 8.285156 -12.9375 9.28125 -12.742188 10.125 -12.359375 C 10.96875 -11.984375 11.613281 -11.441406 12.0625 -10.734375 C 12.519531 -10.035156 12.75 -9.207031 12.75 -8.25 C 12.75 -7.28125 12.519531 -6.445312 12.0625 -5.75 C 11.601562 -5.0625 10.945312 -4.53125 10.09375 -4.15625 L 13 0 Z M 9.71875 -8.25 C 9.71875 -8.96875 9.484375 -9.519531 9.015625 -9.90625 C 8.546875 -10.300781 7.863281 -10.5 6.96875 -10.5 L 4.53125 -10.5 L 4.53125 -5.984375 L 6.96875 -5.984375 C 7.863281 -5.984375 8.546875 -6.179688 9.015625 -6.578125 C 9.484375 -6.972656 9.71875 -7.53125 9.71875 -8.25 Z M 9.71875 -8.25 "/></g></g></g><g fill="#000000" fill-opacity="1"><g transform="translate(253.994325, 175.992505)"><g><path d="M 10.0625 -2.765625 L 4.046875 -2.765625 L 2.90625 0 L -0.171875 0 L 5.59375 -12.9375 L 8.5625 -12.9375 L 14.34375 0 L 11.203125 0 Z M 9.109375 -5.046875 L 7.0625 -10 L 5.015625 -5.046875 Z M 9.109375 -5.046875 "/></g></g></g><g fill="#000000" fill-opacity="1"><g transform="translate(112.403947, 277.323795)"><g><path d="M 12.515625 -8.140625 L 9.765625 0 L 8.859375 0 L 6.46875 -6.953125 L 4.078125 0 L 3.171875 0 L 0.4375 -8.140625 L 1.3125 -8.140625 L 3.671875 -1.140625 L 6.09375 -8.140625 L 6.90625 -8.140625 L 9.296875 -1.109375 L 11.6875 -8.140625 Z M 12.515625 -8.140625 "/></g></g></g><g fill="#000000" fill-opacity="1"><g transform="translate(133.45346, 277.323795)"><g><path d="M 7.09375 -0.75 L 7.09375 0 L 1.328125 0 L 1.328125 -8.140625 L 6.921875 -8.140625 L 6.921875 -7.40625 L 2.1875 -7.40625 L 2.1875 -4.5 L 6.40625 -4.5 L 6.40625 -3.765625 L 2.1875 -3.765625 L 2.1875 -0.75 Z M 7.09375 -0.75 "/></g></g></g><g fill="#000000" fill-opacity="1"><g transform="translate(149.357011, 277.323795)"><g><path d="M 6.453125 -4.203125 C 6.992188 -4.085938 7.410156 -3.851562 7.703125 -3.5 C 7.992188 -3.15625 8.140625 -2.710938 8.140625 -2.171875 C 8.140625 -1.472656 7.878906 -0.9375 7.359375 -0.5625 C 6.847656 -0.1875 6.085938 0 5.078125 0 L 1.328125 0 L 1.328125 -8.140625 L 4.84375 -8.140625 C 5.75 -8.140625 6.453125 -7.957031 6.953125 -7.59375 C 7.453125 -7.226562 7.703125 -6.710938 7.703125 -6.046875 C 7.703125 -5.597656 7.59375 -5.21875 7.375 -4.90625 C 7.15625 -4.59375 6.847656 -4.359375 6.453125 -4.203125 Z M 2.1875 -7.4375 L 2.1875 -4.484375 L 4.78125 -4.484375 C 5.445312 -4.484375 5.957031 -4.609375 6.3125 -4.859375 C 6.664062 -5.109375 6.84375 -5.472656 6.84375 -5.953125 C 6.84375 -6.441406 6.664062 -6.8125 6.3125 -7.0625 C 5.957031 -7.3125 5.445312 -7.4375 4.78125 -7.4375 Z M 5.0625 -0.703125 C 5.789062 -0.703125 6.34375 -0.828125 6.71875 -1.078125 C 7.09375 -1.328125 7.28125 -1.71875 7.28125 -2.25 C 7.28125 -3.257812 6.539062 -3.765625 5.0625 -3.765625 L 2.1875 -3.765625 L 2.1875 -0.703125 Z M 5.0625 -0.703125 "/></g></g></g><g fill="#000000" fill-opacity="1"><g transform="translate(166.250169, 277.323795)"><g><path d="M 1.328125 -8.140625 L 4.640625 -8.140625 C 5.503906 -8.140625 6.265625 -7.96875 6.921875 -7.625 C 7.585938 -7.28125 8.101562 -6.800781 8.46875 -6.1875 C 8.832031 -5.570312 9.015625 -4.867188 9.015625 -4.078125 C 9.015625 -3.285156 8.832031 -2.578125 8.46875 -1.953125 C 8.101562 -1.335938 7.585938 -0.859375 6.921875 -0.515625 C 6.265625 -0.171875 5.503906 0 4.640625 0 L 1.328125 0 Z M 4.59375 -0.75 C 5.3125 -0.75 5.9375 -0.890625 6.46875 -1.171875 C 7.007812 -1.453125 7.425781 -1.84375 7.71875 -2.34375 C 8.007812 -2.84375 8.15625 -3.421875 8.15625 -4.078125 C 8.15625 -4.722656 8.007812 -5.296875 7.71875 -5.796875 C 7.425781 -6.296875 7.007812 -6.6875 6.46875 -6.96875 C 5.9375 -7.257812 5.3125 -7.40625 4.59375 -7.40625 L 2.1875 -7.40625 L 2.1875 -0.75 Z M 4.59375 -0.75 "/></g></g></g><g fill="#000000" fill-opacity="1"><g transform="translate(183.981574, 277.323795)"><g><path d="M 7.09375 -0.75 L 7.09375 0 L 1.328125 0 L 1.328125 -8.140625 L 6.921875 -8.140625 L 6.921875 -7.40625 L 2.1875 -7.40625 L 2.1875 -4.5 L 6.40625 -4.5 L 6.40625 -3.765625 L 2.1875 -3.765625 L 2.1875 -0.75 Z M 7.09375 -0.75 "/></g></g></g><g fill="#000000" fill-opacity="1"><g transform="translate(199.885122, 277.323795)"><g><path d="M 3.578125 0.0625 C 2.972656 0.0625 2.390625 -0.03125 1.828125 -0.21875 C 1.273438 -0.414062 0.847656 -0.671875 0.546875 -0.984375 L 0.890625 -1.65625 C 1.179688 -1.351562 1.570312 -1.109375 2.0625 -0.921875 C 2.550781 -0.742188 3.054688 -0.65625 3.578125 -0.65625 C 4.304688 -0.65625 4.851562 -0.789062 5.21875 -1.0625 C 5.582031 -1.332031 5.765625 -1.679688 5.765625 -2.109375 C 5.765625 -2.429688 5.664062 -2.6875 5.46875 -2.875 C 5.269531 -3.070312 5.023438 -3.222656 4.734375 -3.328125 C 4.453125 -3.429688 4.050781 -3.546875 3.53125 -3.671875 C 2.925781 -3.828125 2.441406 -3.976562 2.078125 -4.125 C 1.710938 -4.269531 1.398438 -4.488281 1.140625 -4.78125 C 0.878906 -5.082031 0.75 -5.484375 0.75 -5.984375 C 0.75 -6.390625 0.851562 -6.757812 1.0625 -7.09375 C 1.28125 -7.4375 1.613281 -7.707031 2.0625 -7.90625 C 2.519531 -8.113281 3.082031 -8.21875 3.75 -8.21875 C 4.21875 -8.21875 4.671875 -8.148438 5.109375 -8.015625 C 5.554688 -7.890625 5.945312 -7.71875 6.28125 -7.5 L 5.984375 -6.8125 C 5.640625 -7.03125 5.273438 -7.195312 4.890625 -7.3125 C 4.503906 -7.425781 4.125 -7.484375 3.75 -7.484375 C 3.03125 -7.484375 2.488281 -7.34375 2.125 -7.0625 C 1.769531 -6.789062 1.59375 -6.4375 1.59375 -6 C 1.59375 -5.675781 1.691406 -5.414062 1.890625 -5.21875 C 2.085938 -5.019531 2.332031 -4.867188 2.625 -4.765625 C 2.925781 -4.660156 3.332031 -4.546875 3.84375 -4.421875 C 4.4375 -4.273438 4.914062 -4.128906 5.28125 -3.984375 C 5.65625 -3.835938 5.96875 -3.617188 6.21875 -3.328125 C 6.476562 -3.046875 6.609375 -2.65625 6.609375 -2.15625 C 6.609375 -1.738281 6.5 -1.363281 6.28125 -1.03125 C 6.0625 -0.695312 5.722656 -0.429688 5.265625 -0.234375 C 4.804688 -0.0351562 4.242188 0.0625 3.578125 0.0625 Z M 3.578125 0.0625 "/></g></g></g><g fill="#000000" fill-opacity="1"><g transform="translate(215.159972, 277.323795)"><g><path d="M 1.328125 -8.140625 L 2.1875 -8.140625 L 2.1875 0 L 1.328125 0 Z M 1.328125 -8.140625 "/></g></g></g><g fill="#000000" fill-opacity="1"><g transform="translate(226.790731, 277.323795)"><g><path d="M 7.0625 -4.078125 L 7.890625 -4.078125 L 7.890625 -0.96875 C 7.515625 -0.632812 7.066406 -0.378906 6.546875 -0.203125 C 6.023438 -0.0234375 5.476562 0.0625 4.90625 0.0625 C 4.082031 0.0625 3.34375 -0.113281 2.6875 -0.46875 C 2.039062 -0.820312 1.53125 -1.316406 1.15625 -1.953125 C 0.789062 -2.585938 0.609375 -3.296875 0.609375 -4.078125 C 0.609375 -4.859375 0.789062 -5.5625 1.15625 -6.1875 C 1.53125 -6.820312 2.039062 -7.316406 2.6875 -7.671875 C 3.34375 -8.035156 4.082031 -8.21875 4.90625 -8.21875 C 5.53125 -8.21875 6.101562 -8.117188 6.625 -7.921875 C 7.144531 -7.722656 7.582031 -7.429688 7.9375 -7.046875 L 7.40625 -6.5 C 6.757812 -7.132812 5.941406 -7.453125 4.953125 -7.453125 C 4.285156 -7.453125 3.6875 -7.304688 3.15625 -7.015625 C 2.625 -6.722656 2.207031 -6.316406 1.90625 -5.796875 C 1.601562 -5.285156 1.453125 -4.710938 1.453125 -4.078125 C 1.453125 -3.441406 1.601562 -2.863281 1.90625 -2.34375 C 2.207031 -1.832031 2.625 -1.429688 3.15625 -1.140625 C 3.6875 -0.847656 4.28125 -0.703125 4.9375 -0.703125 C 5.769531 -0.703125 6.476562 -0.910156 7.0625 -1.328125 Z M 7.0625 -4.078125 "/></g></g></g><g fill="#000000" fill-opacity="1"><g transform="translate(243.905096, 277.323795)"><g><path d="M 8.140625 -8.140625 L 8.140625 0 L 7.421875 0 L 2.1875 -6.609375 L 2.1875 0 L 1.328125 0 L 1.328125 -8.140625 L 2.03125 -8.140625 L 7.28125 -1.53125 L 7.28125 -8.140625 Z M 8.140625 -8.140625 "/></g></g></g></svg>